{
  "accessors": [
    {
      "bufferView": 2,
      "componentType": 5126,
      "count": 2323,
      "max": [
        -637.1517333984375,
        123.55016326904297,
        14.28699779510498
      ],
      "min": [
        -663.7520751953125,
        23.449840545654297,
        5.256744384765625
      ],
      "type": "VEC3"
    },
    {
      "bufferView": 2,
      "byteOffset": 27876,
      "componentType": 5126,
      "count": 2323,
      "max": [
        0.9996305704116821,
        0.9996305704116821,
        1.0
      ],
      "min": [
        -0.9996305704116821,
        -0.9996305704116821,
        -1.0
      ],
      "type": "VEC3"
    },
    {
      "bufferView": 1,
      "componentType": 5126,
      "count": 2323,
      "max": [
        0.0499267578125,
        0.04706619679927826
      ],
      "min": [
        0.0,
        0.0
      ],
      "type": "VEC2"
    },
    {
      "bufferView": 0,
      "componentType": 5125,
      "count": 10431,
      "type": "SCALAR"
    },
    {
      "bufferView": 2,
      "byteOffset": 55752,
      "componentType": 5126,
      "count": 4121,
      "max": [
        -605.5838623046875,
        110.25,
        36.42864990234375
      ],
      "min": [
        -656.2518920898438,
        36.75,
        7.741135597229004
      ],
      "type": "VEC3"
    },
    {
      "bufferView": 2,
      "byteOffset": 105204,
      "componentType": 5126,
      "count": 4121,
      "max": [
        1.0,
        3.357313289598096e-07,
        1.0
      ],
      "min": [
        -0.9467549324035645,
        -1.0,
        -1.0
      ],
      "type": "VEC3"
    },
    {
      "bufferView": 1,
      "byteOffset": 18584,
      "componentType": 5126,
      "count": 4121,
      "max": [
        0.9710654616355896,
        0.633457362651825
      ],
      "min": [
        0.015243735164403915,
        0.0
      ],
      "type": "VEC2"
    },
    {
      "bufferView": 0,
      "byteOffset": 41724,
      "componentType": 5125,
      "count": 12195,
      "type": "SCALAR"
    },
    {
      "bufferView": 2,
      "byteOffset": 154656,
      "componentType": 5126,
      "count": 28539,
      "max": [
        -605.5838623046875,
        155.11795043945313,
        36.42864990234375
      ],
      "min": [
        -695.3199462890625,
        -8.11795425415039,
        7.741135597229004
      ],
      "type": "VEC3"
    },
    {
      "bufferView": 2,
      "byteOffset": 497124,
      "componentType": 5126,
      "count": 28539,
      "max": [
        1.0,
        1.0,
        1.0
      ],
      "min": [
        -1.0,
        -1.0,
        -1.0
      ],
      "type": "VEC3"
    },
    {
      "bufferView": 1,
      "byteOffset": 51552,
      "componentType": 5126,
      "count": 28539,
      "max": [
        0.99853515625,
        0.9691653847694397
      ],
      "min": [
        0.0,
        0.0
      ],
      "type": "VEC2"
    },
    {
      "bufferView": 0,
      "byteOffset": 90504,
      "componentType": 5125,
      "count": 107223,
      "type": "SCALAR"
    },
    {
      "bufferView": 2,
      "byteOffset": 839592,
      "componentType": 5126,
      "count": 3840,
      "max": [
        -610.5518798828125,
        150.14999389648438,
        41.759376525878906
      ],
      "min": [
        -690.3519287109375,
        -3.1500000953674316,
        22.55514907836914
      ],
      "type": "VEC3"
    },
    {
      "bufferView": 2,
      "byteOffset": 885672,
      "componentType": 5126,
      "count": 3840,
      "max": [
        1.0,
        1.0,
        1.0
      ],
      "min": [
        -1.0,
        -1.0,
        -1.0
      ],
      "type": "VEC3"
    },
    {
      "bufferView": 1,
      "byteOffset": 279864,
      "componentType": 5126,
      "count": 3840,
      "max": [
        0.6078658103942871,
        0.99853515625
      ],
      "min": [
        0.0,
        0.0
      ],
      "type": "VEC2"
    },
    {
      "bufferView": 0,
      "byteOffset": 519396,
      "componentType": 5125,
      "count": 16482,
      "type": "SCALAR"
    }
  ],
  "asset": {
    "extras": {
      "author": "stan18061999 (https://sketchfab.com/stan18061999)",
      "license": "CC-BY-4.0 (http://creativecommons.org/licenses/by/4.0/)",
      "source": "https://sketchfab.com/3d-models/test-ar-a169c2bb5dde470987d848932b4d2fd7",
      "title": "TEST AR"
    },
    "generator": "Sketchfab-12.66.0",
    "version": "2.0"
  },
  "bufferViews": [
    {
      "buffer": 0,
      "byteLength": 585324,
      "name": "floatBufferViews",
      "target": 34963
    },
    {
      "buffer": 0,
      "byteLength": 310584,
      "byteOffset": 585324,
      "byteStride": 8,
      "name": "floatBufferViews",
      "target": 34962
    },
    {
      "buffer": 0,
      "byteLength": 931752,
      "byteOffset": 895908,
      "byteStride": 12,
      "name": "floatBufferViews",
      "target": 34962
    }
  ],
  "buffers": [
    {
      "byteLength": 1827660,
      "uri": "scene.bin"
    }
  ],
  "materials": [
    {
      "doubleSided": true,
      "name": "Grs_cramique",
      "pbrMetallicRoughness": {
        "metallicFactor": 0.0,
        "roughnessFactor": 0.6
      }
    },
    {
      "doubleSided": true,
      "name": "Htre_clair",
      "pbrMetallicRoughness": {
        "metallicFactor": 0.0,
        "roughnessFactor": 0.6
      }
    },
    {
      "doubleSided": true,
      "name": "Verre_1",
      "pbrMetallicRoughness": {
        "metallicFactor": 0.0,
        "roughnessFactor": 0.6
      }
    }
  ],
  "meshes": [
    {
      "name": "Object_0",
      "primitives": [
        {
          "attributes": {
            "NORMAL": 1,
            "POSITION": 0,
            "TEXCOORD_0": 2
          },
          "indices": 3,
          "material": 0,
          "mode": 4
        }
      ]
    },
    {
      "name": "Object_1",
      "primitives": [
        {
          "attributes": {
            "NORMAL": 5,
            "POSITION": 4,
            "TEXCOORD_0": 6
          },
          "indices": 7,
          "material": 1,
          "mode": 4
        }
      ]
    },
    {
      "name": "Object_2",
      "primitives": [
        {
          "attributes": {
            "NORMAL": 9,
            "POSITION": 8,
            "TEXCOORD_0": 10
          },
          "indices": 11,
          "material": 1,
          "mode": 4
        }
      ]
    },
    {
      "name": "Object_3",
      "primitives": [
        {
          "attributes": {
            "NORMAL": 13,
            "POSITION": 12,
            "TEXCOORD_0": 14
          },
          "indices": 15,
          "material": 2,
          "mode": 4
        }
      ]
    }
  ],
  "nodes": [
    {
      "children": [
        1
      ],
      "matrix": [
        1.0,
        0.0,
        0.0,
        0.0,
        0.0,
        2.220446049250313e-16,
        -1.0,
        0.0,
        0.0,
        1.0,
        2.220446049250313e-16,
        0.0,
        0.0,
        0.0,
        0.0,
        1.0
      ],
      "name": "Sketchfab_model"
    },
    {
      "children": [
        2,
        3,
        4,
        5
      ],
      "name": "TEST AR.obj.cleaner.materialmerger.gles"
    },
    {
      "mesh": 0,
      "name": "Object_2"
    },
    {
      "mesh": 1,
      "name": "Object_3"
    },
    {
      "mesh": 2,
      "name": "Object_4"
    },
    {
      "mesh": 3,
      "name": "Object_5"
    }
  ],
  "scene": 0,
  "scenes": [
    {
      "name": "Sketchfab_Scene",
      "nodes": [
        0
      ]
    }
  ]
}
